<svg xmlns="http://www.w3.org/2000/svg" width="512" height="512" overflow="visible" xml:space="preserve"><path fill="#C20" d="M400.375 81.059C353.008 85 313.471 124.465 289.84 163.986c-19.769 35.534-27.657 98.711 31.586 75.01 39.431-15.819 78.949-47.366 102.617-82.947 23.753-35.525 35.559-82.874-23.668-74.99zm76.496 45.465c-15.747 24.07-37.844 46.173-48.834 57.186-19.78 23.701-43.427 43.443-67.181 59.227-19.725 15.783-51.271 27.642-67.075 47.401-11.858 15.785-23.71 43.408-11.858 59.173 11.858 15.82 43.423 19.797 63.168 27.644 19.762 7.918 51.324 19.777 55.284 39.52 7.882 35.525-23.755 31.565-43.426 27.59-59.226-7.864-122.423-27.59-185.599-27.59-34.542 0-67.007 7.316-98.457 18.188C119.375 482.444 184.228 512 256 512c141.385 0 256-114.615 256-256 0-47.243-12.812-91.488-35.129-129.476zM214.778 341.646c-11.817-31.601-71.061-27.659-94.735-39.483-35.525-19.76-59.253-51.343-71.058-90.818-7.893-39.477 3.912-106.577 59.188-82.892 31.641 11.831 0 23.665-7.881 43.415-23.646 39.477 27.652 78.952 63.168 90.83 55.293 15.766 59.273-47.395 75.046-86.879 21.339-50.71 84.196-119.47 149.523-139.18C349.478 13.385 304.304 0 256 0 114.615 0 0 114.615 0 256c0 55.545 17.71 106.941 47.765 148.895 29.448-8.798 59.793-15.273 88.063-23.762 23.736-3.978 90.809-7.901 78.95-39.487z"/></svg>