<svg xmlns="http://www.w3.org/2000/svg" xmlns:xlink="http://www.w3.org/1999/xlink" width="512" height="512" overflow="visible" xml:space="preserve"><defs><path id="a" d="M512 256c0 141.385-114.615 256-256 256S0 397.385 0 256 114.615 0 256 0s256 114.615 256 256z"/></defs><clipPath id="b"><use xlink:href="#a"/></clipPath><path clip-path="url(#b)" fill="#C20" d="M512 256c0 141.385-114.615 256-256 256S0 397.385 0 256 114.615 0 256 0s256 114.615 256 256z"/><path clip-path="url(#b)" fill="#FFF" d="M388.029 36.639c-65.327 19.71-128.184 88.47-149.523 139.18-15.773 39.484-19.753 102.645-75.046 86.879-35.516-11.877-86.814-51.353-63.168-90.83 7.881-19.75 39.521-31.584 7.881-43.415-55.276-23.685-67.081 43.415-59.188 82.892 11.805 39.475 35.533 71.059 71.058 90.818 23.675 11.824 82.918 7.883 94.735 39.483 11.858 31.586-55.214 35.509-78.95 39.486-28.276 8.49-58.629 14.967-88.083 23.768a257.395 257.395 0 0 0 25.134 29.967c31.454-10.874 63.924-18.192 98.471-18.192 63.176 0 126.374 19.726 185.599 27.59 19.671 3.976 51.308 7.936 43.426-27.59-3.96-19.742-35.522-31.602-55.284-39.52-19.745-7.847-51.31-11.823-63.168-27.644-11.852-15.765 0-43.388 11.858-59.173 15.804-19.76 47.351-31.618 67.075-47.401 23.754-15.784 47.4-35.526 67.181-59.227 10.99-11.013 33.087-33.116 48.834-57.187a257.27 257.27 0 0 0-88.842-89.884zm36.014 119.41c-23.668 35.581-63.187 67.127-102.617 82.947-59.243 23.702-51.354-39.476-31.586-75.01C313.471 124.465 353.008 85 400.375 81.059c59.227-7.884 47.421 39.465 23.668 74.99z"/></svg>