<svg xmlns="http://www.w3.org/2000/svg" width="512" height="512" overflow="visible" xml:space="preserve"><path fill="#C20" d="M512 512H0V0h512v512z"/><path fill="#FFF" d="M479.343 49.474c-86.87-63.177-209.272 51.335-240.837 126.344-15.773 39.484-19.753 102.645-75.046 86.879-35.516-11.877-86.814-51.353-63.168-90.83 7.881-19.75 39.521-31.584 7.881-43.415-55.276-23.685-67.081 43.415-59.188 82.892 11.805 39.475 35.533 71.059 71.058 90.818 23.675 11.824 82.918 7.883 94.735 39.482 11.858 31.587-55.214 35.51-78.95 39.486-39.44 11.842-82.931 19.741-122.368 35.542a444.298 444.298 0 0 0-13.459 5.523v43.113c54.516-25.278 109.62-48.638 171.35-48.638 63.176 0 126.374 19.727 185.599 27.59 19.671 3.977 51.309 7.937 43.427-27.59-3.961-19.742-35.522-31.602-55.284-39.52-19.745-7.848-51.311-11.823-63.168-27.645-11.853-15.765 0-43.388 11.857-59.173 15.805-19.76 47.352-31.618 67.075-47.401 23.754-15.784 47.4-35.526 67.181-59.227 23.643-23.687 98.709-98.704 51.305-134.23zm-55.301 106.575c-23.668 35.581-63.188 67.127-102.617 82.947-59.243 23.702-51.354-39.476-31.586-75.01C313.47 124.465 353.007 85 400.375 81.059c59.226-7.884 47.42 39.465 23.667 74.99z"/></svg>