<svg xmlns="http://www.w3.org/2000/svg" width="32" height="32" overflow="visible" xml:space="preserve"><path fill="#FFF" d="M0 0v26.207c.908-.51 1.851-.975 2.84-1.362 2.13-.854 4.479-1.28 6.61-1.92 1.282-.215 4.905-.427 4.265-2.133-.638-1.707-3.838-1.494-5.117-2.133-1.919-1.067-3.201-2.773-3.838-4.906-.426-2.132.211-5.757 3.197-4.478 1.709.639 0 1.278-.426 2.345-1.277 2.132 1.494 4.265 3.412 4.906 2.987.852 3.202-2.56 4.054-4.693 1.705-4.052 8.317-10.237 13.009-6.825 2.561 1.919-1.494 5.971-2.771 7.251-1.068 1.28-2.346 2.347-3.629 3.199-1.065.853-2.77 1.493-3.623 2.561-.641.853-1.281 2.345-.641 3.196.641.854 2.346 1.069 3.412 1.493 1.067.428 2.772 1.068 2.986 2.135.426 1.919-1.283 1.705-2.346 1.49-3.199-.425-6.613-1.49-10.025-1.49-3.624 0-6.825 1.49-10.022 2.984-.466.207-.912.453-1.347.718V32h32V0H0zm19.476 15.247c2.13-.854 4.265-2.559 5.543-4.48 1.283-1.919 1.921-4.477-1.278-4.051-2.559.213-4.694 2.345-5.971 4.479-1.068 1.92-1.495 5.332 1.706 4.052z"/></svg>