<svg xmlns="http://www.w3.org/2000/svg" width="603.303" height="513" overflow="visible" xml:space="preserve"><path fill-rule="evenodd" clip-rule="evenodd" fill="#791700" d="M603.303 512h-512V0h512v512z"/><path fill-rule="evenodd" clip-rule="evenodd" fill="#FFF" d="M403.699 114.213c-38.674 29.299-84.807 61.883-93.104 113.747-12.523 26.007-18.216 83.116-62.351 61.929-29.534-6.11-82.018-45.338-55.188-81.729 11.484-15.579 26.771-33.726-8.263-32.908-16.334.381-30.738 12.035-34.708 27.853-9.99 39.807 19.824 83.83 50.237 105.612 25.584 18.324 74.867 10.75 92.829 35.611 20.521 28.403-43 37.664-60.073 39.509-14.696 7.668-82.456 27.468-141.774 42.57v45.534c18.149-12.265 39.597-22.434 52.271-29.516 16.27-9.09 35.855-17.209 54.116-20.252 39.295-19.649 74.185-6.332 114.169-5.687 39.504.636 86.097 26.021 125.431 17.065 48.942-11.143-47.806-57.83-54.443-59.656-41.475-11.404-50.989-51.691-13.356-77.447 37.812-25.88 70.452-52.252 103.302-84.498 16.692-20.706 65.941-63.128 45.92-96.474-24.758-41.23-83.613-14.76-115.015-1.263zm-58.138 157.56c-55.521-41.61 73.079-154.321 122.595-139.024 64.219 19.84-76.151 173.832-122.595 139.024z"/></svg>